<svg width="561" height="232" viewBox="0 0 561 232" fill="none" xmlns="http://www.w3.org/2000/svg">
<style>
    path {
        fill: black;
    }
    @media (prefers-color-scheme: dark) {
        path { fill: white; }
    }
</style>
<path d="M143 1.40923C124.059 1.40923 95.909 -3.84537 79 5.93853C64.945 14.0709 59.9498 34.0322 54.8202 48.4092C44.6502 76.9122 33.1303 105.82 20.6944 133.409C11.9845 152.732 0.00831738 175.872 7.37775e-06 197.409C-0.00466262 209.511 2.20511 220.397 14 226.584C28.2828 234.077 49.3651 230.409 65 230.409H133C161.942 230.409 186.34 232.324 204.48 205.409C211.372 195.184 214.515 182.68 219.284 171.409C230.203 145.605 240.039 119.361 250.603 93.4092C254.415 84.0452 258.458 74.7732 262.266 65.4092C263.887 61.4242 265.554 54.8842 269.39 52.4372C273.207 50.0022 280.644 51.4092 285 51.4092C298.115 51.4092 314.218 48.8662 327 51.8032C345.766 56.1162 328.858 83.7652 324.6 94.4092C311.42 127.358 299.101 160.727 285.284 193.409C280.991 203.564 271.078 220.602 284.015 228.551C293.829 234.581 315.686 230.409 327 230.409C330.755 230.409 338.087 231.819 340.925 228.806C344.352 225.168 345.676 218.005 347.424 213.409C351.628 202.358 356.005 191.31 360.576 180.409C373.332 149.987 386.431 119.306 397.95 88.4092C401.327 79.3502 405.745 57.6432 414.329 52.4372C418.275 50.0432 425.547 51.4092 430 51.4092C443.222 51.4092 459.06 49.0062 472 51.6882C476.747 52.6712 481.686 57.2232 481.177 62.4092C480.596 68.3272 476.596 74.9142 474.4 80.4092C469.754 92.0322 465.406 103.774 460.796 115.409C450.246 142.04 439.965 168.782 429.399 195.409C425.457 205.342 417.179 218.163 427.105 227.181C431.949 231.581 438.947 230.409 445 230.409H485C490.457 211.458 500.291 192.746 507.691 174.409C519.249 145.768 530.172 116.879 542.154 88.4092C550.171 69.3582 565.645 42.6562 558.775 21.4092C549.576 -7.04497 506.723 1.40923 484 1.40923C421.301 1.40923 358.636 0.409233 296 0.409233H252C241.222 0.409233 231.405 -0.38627 222.039 5.95713C208.492 15.1325 202.888 37.7612 197.316 52.4092C187.86 77.2682 177.175 101.748 167.201 126.409C162.403 138.27 158.687 154.051 151.011 164.316C140.848 177.906 113.05 176.815 98 174.833C91.48 173.975 79.6006 173.949 79.8974 164.409C80.3395 150.196 91.312 132.505 96.551 119.409C105.872 96.1082 114.916 72.6842 124.309 49.4092C130.585 33.8552 139.217 17.7533 143 1.40923Z" fill="black"/>
</svg>
